<svg width="24" height="24" viewBox="0 0 24 24" fill="none" xmlns="http://www.w3.org/2000/svg">
<g clip-path="url(#clip0_4762_129)">
<mask id="mask0_4762_129" style="mask-type:luminance" maskUnits="userSpaceOnUse" x="0" y="0" width="24" height="24">
<path d="M24 0H0V24H24V0Z" fill="white"/>
</mask>
<g mask="url(#mask0_4762_129)">
<path opacity="0.4" d="M8 2H17C19 2 20 3 20 5L20.5 15" fill="white"/>
<path d="M16.7596 1.9506L15.9294 2.34776C15.6902 2.46222 15.5062 2.66704 15.418 2.91715L15.1931 3.55462L14.8304 4.5827L14.6395 4.5591C14.5333 4.54349 14.3487 4.53665 14.2263 4.53959C13.995 4.54788 13.5756 4.63547 13.4506 4.70066L13.3789 4.73853L13.4814 4.7577C13.5385 4.76811 13.8448 4.81545 14.1613 4.86153C14.8477 4.9604 15.7606 5.11248 15.8427 5.14143L15.9018 5.15985L15.8577 5.11272C15.8336 5.08477 15.7313 5.00983 15.6332 4.94366L15.4491 4.82527L15.7707 3.91382L16.0922 3.00236L16.9022 2.62023C17.3455 2.40992 17.837 2.18016 17.9955 2.10975C18.1516 2.03703 18.2171 1.84994 18.1405 1.6957L18.1354 1.68553C18.0346 1.48422 17.8736 1.42616 17.6693 1.52084C17.4448 1.62486 17.1189 1.77866 16.7596 1.9506Z" fill="black"/>
<path d="M15.4271 5.50726C14.977 5.44075 14.433 5.35811 14.2178 5.32105C14.004 5.2869 13.5806 5.22013 13.2801 5.17723L12.7331 5.09599L12.6002 5.19727C12.3242 5.40832 12.1104 5.6632 11.9834 5.92683C11.9293 6.03889 11.9284 6.0483 11.9711 6.05121C11.9958 6.05019 12.2558 6.09094 12.5447 6.13943C13.0525 6.22143 13.8905 6.35192 15.2957 6.56835C15.6576 6.62318 16.1417 6.6968 16.3714 6.73412L16.7904 6.79937L16.7611 6.6069C16.6973 6.19579 16.4604 5.69692 16.3099 5.64867C16.2753 5.63648 15.8773 5.57377 15.4271 5.50726Z" fill="black"/>
<path d="M15.7458 7.22013C14.7532 7.06667 13.9824 6.94532 13.2608 6.82917C12.849 6.76405 12.3383 6.68345 12.1245 6.6493L11.7351 6.58964L11.6901 6.75836C11.5997 7.08348 11.6653 7.3932 11.8614 7.57409C11.9954 7.69667 12.1404 7.73324 13.0413 7.87134C13.7327 7.97682 14.3236 8.07114 15.4641 8.25977C16.0563 8.35701 16.1519 8.36157 16.3057 8.30412C16.7032 8.14806 16.7714 7.6038 16.418 7.38685C16.2804 7.30188 16.2891 7.30493 15.7458 7.22013Z" fill="black"/>
<path d="M13.962 8.44876C13.6204 8.39139 13.092 8.32641 13.1004 8.34394C13.1052 8.35779 14.066 8.51214 14.2626 8.53295C14.4738 8.55402 14.2993 8.50462 13.962 8.44876Z" fill="black"/>
<path d="M14.896 9.00898C14.5145 8.95453 13.9683 8.87113 13.1332 8.73925C12.0612 8.56991 12.0873 8.57181 11.963 8.63484C11.8366 8.69711 11.75 8.80498 11.7313 8.91983C11.7052 9.09033 11.8115 9.30515 11.9498 9.35391C12.0124 9.37601 13.2331 9.57836 13.5056 9.61135C13.5569 9.61732 13.916 9.67355 14.3017 9.73677C14.6903 9.79858 15.0538 9.8491 15.1117 9.85011C15.2892 9.84958 15.4305 9.76584 15.5201 9.60803C15.5844 9.4947 15.5576 9.28851 15.4679 9.19858C15.3639 9.09391 15.2573 9.05873 14.896 9.00898Z" fill="black"/>
<path d="M13.5159 10.0984C12.8319 9.98576 12.6996 9.96824 12.7355 9.9906C12.7892 10.0241 13.9268 10.2142 13.9648 10.196C13.9911 10.1834 13.8597 10.1565 13.5159 10.0984Z" fill="black"/>
<path d="M12.6315 9.97573C12.6444 9.98756 12.6646 9.99227 12.6734 9.98807C12.6843 9.98463 12.6736 9.97356 12.6491 9.96733C12.6253 9.95893 12.6165 9.96313 12.6315 9.97573Z" fill="black"/>
<path d="M13.8285 10.6239C13.6392 10.5959 13.1451 10.5164 12.729 10.4497C11.9004 10.3201 11.8476 10.3185 11.7157 10.4444C11.5191 10.63 11.5406 10.9339 11.7596 11.084C11.8477 11.1443 12.0288 11.1815 12.6871 11.2777C12.9089 11.3098 13.2983 11.3694 13.5482 11.4115C13.7989 11.4513 14.0453 11.4824 14.0946 11.4804C14.2853 11.4699 14.4645 11.3267 14.4943 11.1599C14.5265 10.9721 14.405 10.752 14.2393 10.6984C14.204 10.6884 14.0192 10.6547 13.8285 10.6239Z" fill="black"/>
<path d="M12.6045 11.7391L12.319 11.7016L12.2215 11.978L12.1232 12.2567L12.4471 12.3709L12.7711 12.4852L12.8849 12.1489L13.0009 11.8134L12.9439 11.7958C12.9129 11.7872 12.7598 11.76 12.6045 11.7391Z" fill="black"/>
<path d="M20.6182 2.62126L19.9913 2.92118C19.7521 3.03564 19.5681 3.24046 19.4799 3.49057L19.3162 3.95446L19.0147 4.80896L18.8561 4.78934C18.7679 4.77637 18.6144 4.77069 18.5126 4.77313C18.3205 4.78002 17.9718 4.85282 17.8679 4.907L17.8083 4.93848L17.8936 4.95441C17.941 4.96306 18.1956 5.00242 18.4586 5.04071C19.0291 5.12289 19.788 5.24929 19.8562 5.27336L19.9053 5.28866L19.8686 5.24949C19.8486 5.22627 19.7636 5.16398 19.682 5.10897L19.529 5.01058L19.7963 4.25301L20.0635 3.49544L20.7368 3.17783C21.1053 3.00303 21.5138 2.81206 21.6455 2.75354C21.7752 2.69309 21.8297 2.5376 21.766 2.4094L21.7618 2.40095C21.6779 2.23362 21.5441 2.18537 21.3743 2.26406C21.1878 2.35051 20.9169 2.47835 20.6182 2.62126Z" fill="black"/>
<path d="M19.5108 5.57741C19.1367 5.52213 18.6845 5.45345 18.5057 5.42264C18.3279 5.39426 17.9761 5.33876 17.7262 5.3031L17.2717 5.23558L17.1612 5.31976C16.9318 5.49518 16.7541 5.70703 16.6485 5.92615C16.6036 6.01929 16.6028 6.0271 16.6383 6.02952C16.6588 6.02868 16.8749 6.06254 17.1151 6.10285C17.5371 6.17101 18.2337 6.27946 19.4015 6.45935C19.7024 6.50492 20.1047 6.56612 20.2956 6.59713L20.6439 6.65136L20.6196 6.49139C20.5665 6.1497 20.3696 5.73505 20.2445 5.69495C20.2158 5.68481 19.885 5.63269 19.5108 5.57741Z" fill="black"/>
<path d="M19.7758 7.00108C18.9507 6.87353 18.3101 6.77267 17.7103 6.67613C17.3681 6.622 16.9436 6.55501 16.7658 6.52663L16.4422 6.47704L16.4048 6.61727C16.3297 6.8875 16.3842 7.14493 16.5472 7.29527C16.6586 7.39716 16.7791 7.42755 17.5278 7.54234C18.1025 7.63001 18.5936 7.7084 19.5416 7.86519C20.0338 7.94601 20.1133 7.9498 20.2411 7.90205C20.5715 7.77234 20.6282 7.31997 20.3345 7.13965C20.2201 7.06902 20.2273 7.07156 19.7758 7.00108Z" fill="black"/>
<path d="M18.293 8.02229C18.0091 7.9746 17.5699 7.9206 17.5769 7.93517C17.5809 7.94668 18.3794 8.07497 18.5429 8.09227C18.7184 8.10977 18.5734 8.06872 18.293 8.02229Z" fill="black"/>
<path d="M19.0694 8.48793C18.7523 8.44268 18.2984 8.37336 17.6043 8.26374C16.7133 8.123 16.7349 8.12458 16.6316 8.17697C16.5266 8.22872 16.4546 8.31838 16.4391 8.41384C16.4173 8.55555 16.5057 8.7341 16.6206 8.77463C16.6727 8.793 17.6873 8.96118 17.9138 8.9886C17.9564 8.99356 18.2548 9.0403 18.5754 9.09284C18.8984 9.14422 19.2006 9.18621 19.2487 9.18705C19.3962 9.18661 19.5136 9.11701 19.5882 8.98585C19.6416 8.89165 19.6193 8.72027 19.5447 8.64552C19.4583 8.55853 19.3697 8.52929 19.0694 8.48793Z" fill="black"/>
<path d="M17.9223 9.39336C17.3538 9.29977 17.2439 9.28522 17.2736 9.3038C17.3183 9.33167 18.2638 9.48962 18.2954 9.47451C18.3172 9.46406 18.2081 9.44168 17.9223 9.39336Z" fill="black"/>
<path d="M17.1872 9.29145C17.1978 9.30121 17.2145 9.30509 17.2217 9.30163C17.2307 9.29879 17.2219 9.28966 17.2017 9.28453C17.182 9.2776 17.1748 9.28107 17.1872 9.29145Z" fill="black"/>
<path d="M18.1821 9.83015C18.0247 9.80694 17.6141 9.74079 17.2682 9.6854C16.5795 9.57768 16.5356 9.57631 16.426 9.68097C16.2626 9.83527 16.2805 10.0878 16.4625 10.2126C16.5357 10.2627 16.6863 10.2936 17.2334 10.3736C17.4178 10.4003 17.7414 10.4498 17.9491 10.4848C18.1575 10.5179 18.3623 10.5437 18.4033 10.542C18.5618 10.5334 18.7108 10.4143 18.7354 10.2757C18.7622 10.1196 18.6613 9.93663 18.5236 9.89209C18.4942 9.88375 18.3406 9.85579 18.1821 9.83015Z" fill="black"/>
<path d="M17.1647 10.7571L16.9274 10.7259L16.8463 10.9557L16.7646 11.1873L17.0339 11.2823L17.3032 11.3773L17.3978 11.0977L17.4941 10.8188L17.4468 10.8042C17.4211 10.7971 17.2938 10.7744 17.1647 10.7571Z" fill="black"/>
<path d="M22 11V17C22 21 21 22 17 22H7C3 22 2 21 2 17V7C2 3 3 2 7 2H8.5C10 2 10.33 2.44 10.9 3.2L12.4 5.2C12.78 5.7 13 6 14 6H17C21 6 22 7 22 11Z" fill="url(#paint0_linear_4762_129)"/>
</g>
</g>
<defs>
<linearGradient id="paint0_linear_4762_129" x1="12" y1="2" x2="12" y2="22" gradientUnits="userSpaceOnUse">
<stop stop-color="#FF8D92"/>
<stop offset="1" stop-color="#FF0980"/>
</linearGradient>
<clipPath id="clip0_4762_129">
<rect width="24" height="24" fill="white"/>
</clipPath>
</defs>
</svg>
