<svg width="24" height="24" viewBox="0 0 24 24" fill="none" xmlns="http://www.w3.org/2000/svg">
<g clip-path="url(#clip0_4762_146)">
<mask id="mask0_4762_146" style="mask-type:luminance" maskUnits="userSpaceOnUse" x="0" y="0" width="24" height="24">
<path d="M24 0H0V24H24V0Z" fill="white"/>
</mask>
<g mask="url(#mask0_4762_146)">
<path d="M22 11V17C22 21 21 22 17 22H7C3 22 2 21 2 17V7C2 3 3 2 7 2H8.5C10 2 10.33 2.44 10.9 3.2L12.4 5.2C12.78 5.7 13 6 14 6H17C21 6 22 7 22 11Z" fill="url(#paint0_linear_4762_146)"/>
</g>
<path d="M16.0039 3.88696L14.2223 4.73932L13.6855 6.26088L13.1488 7.78245L12.8663 7.74751C12.7091 7.72441 12.4359 7.71429 12.2547 7.71864C11.9125 7.7309 11.2917 7.86054 11.1066 7.95702L11.0006 8.01306L11.1523 8.04143C11.2368 8.05684 11.6901 8.12691 12.1585 8.1951C13.1744 8.34144 14.5256 8.56651 14.647 8.60936L14.7345 8.63662L14.6692 8.56687C14.6335 8.52551 14.4821 8.41459 14.337 8.31665L14.0645 8.14145L14.5404 6.7925L15.0163 5.44355L16.215 4.87801C16.8712 4.56674 17.5986 4.22669 17.8331 4.1225L18.2546 3.92614L18.0402 3.49466C17.9221 3.25889 17.8173 3.05659 17.81 3.04682C17.7983 3.03911 16.9856 3.41733 16.0039 3.88696Z" fill="black"/>
<path d="M14.0321 9.15077C13.3659 9.05234 12.5608 8.93004 12.2422 8.87518C11.9258 8.82464 11.2993 8.72583 10.8544 8.66233L10.045 8.54211L9.8483 8.69199C9.43976 9.00435 9.12337 9.38157 8.9354 9.77174C8.85532 9.93759 8.85401 9.9515 8.91718 9.95582C8.95366 9.95431 9.33855 10.0146 9.76613 10.0864C10.5177 10.2077 11.7579 10.4009 13.8375 10.7212C14.3732 10.8023 15.0896 10.9113 15.4295 10.9665L16.0496 11.0631L16.0064 10.7782C15.9119 10.1698 15.5613 9.43148 15.3385 9.36006C15.2874 9.34201 14.6983 9.24921 14.0321 9.15077Z" fill="black"/>
<path d="M14.5039 11.6858C13.0348 11.4587 11.8941 11.2791 10.8261 11.1072C10.2167 11.0108 9.46078 10.8915 9.14433 10.841L8.56803 10.7527L8.5015 11.0024C8.36769 11.4836 8.46477 11.942 8.75493 12.2097C8.95332 12.3911 9.16786 12.4452 10.5012 12.6496C11.5244 12.8057 12.3989 12.9453 14.0869 13.2245C14.9634 13.3684 15.1048 13.3751 15.3325 13.2901C15.9208 13.0591 16.0217 12.2536 15.4987 11.9326C15.2951 11.8068 15.3079 11.8113 14.5039 11.6858Z" fill="black"/>
<path d="M11.8637 13.5042C11.3581 13.4193 10.5761 13.3231 10.5885 13.349C10.5957 13.3695 12.0175 13.598 12.3086 13.6288C12.6211 13.66 12.3629 13.5869 11.8637 13.5042Z" fill="black"/>
<path d="M13.2461 14.3333C12.6815 14.2528 11.8732 14.1293 10.6372 13.9341C9.05067 13.6835 9.08921 13.6863 8.90534 13.7796C8.71827 13.8718 8.59005 14.0314 8.56244 14.2014C8.52374 14.4537 8.68116 14.7717 8.88574 14.8438C8.97844 14.8765 10.785 15.176 11.1883 15.2249C11.2643 15.2337 11.7957 15.3169 12.3665 15.4105C12.9417 15.502 13.4796 15.5767 13.5654 15.5782C13.828 15.5774 14.0371 15.4535 14.1698 15.2199C14.2649 15.0522 14.2252 14.7471 14.0925 14.614C13.9386 14.459 13.7809 14.407 13.2461 14.3333Z" fill="black"/>
<path d="M11.2035 15.9456C10.1912 15.7789 9.99547 15.753 10.0485 15.7861C10.128 15.8357 11.8116 16.117 11.8679 16.0901C11.9068 16.0715 11.7124 16.0316 11.2035 15.9456Z" fill="black"/>
<path d="M9.89456 15.7641C9.91343 15.7815 9.94314 15.7884 9.95603 15.7822C9.97209 15.7772 9.9564 15.7609 9.92034 15.7518C9.8854 15.7395 9.87251 15.7456 9.89456 15.7641Z" fill="black"/>
<path d="M11.666 16.7233C11.3859 16.682 10.6546 16.5642 10.0389 16.4656C8.81254 16.2738 8.73432 16.2713 8.53917 16.4577C8.24815 16.7324 8.27999 17.1822 8.60417 17.4044C8.73448 17.4935 9.00261 17.5486 9.97678 17.6909C10.3051 17.7385 10.8814 17.8268 11.2512 17.889C11.6222 17.9479 11.987 17.994 12.0599 17.9909C12.3422 17.9755 12.6074 17.7636 12.6514 17.5167C12.6991 17.2388 12.5193 16.9129 12.2741 16.8336C12.2219 16.8188 11.9483 16.769 11.666 16.7233Z" fill="black"/>
<path d="M9.85453 18.3739L9.43204 18.3183L9.28769 18.7275L9.14221 19.1398L9.6217 19.309L10.1012 19.4781L10.2696 18.9804L10.4412 18.4838L10.3569 18.4577C10.3111 18.4451 10.0845 18.4047 9.85453 18.3739Z" fill="black"/>
</g>
<defs>
<linearGradient id="paint0_linear_4762_146" x1="12" y1="2" x2="12" y2="22" gradientUnits="userSpaceOnUse">
<stop stop-color="#FF9494"/>
<stop offset="1" stop-color="#FF0080"/>
</linearGradient>
<clipPath id="clip0_4762_146">
<rect width="24" height="24" fill="white"/>
</clipPath>
</defs>
</svg>
