<svg width="14" height="20" viewBox="0 0 14 20" fill="none" xmlns="http://www.w3.org/2000/svg">
<path d="M10.0039 2.88695L8.22234 3.73931L7.68555 5.26088L7.14876 6.78244L6.86634 6.7475C6.70915 6.7244 6.43595 6.71428 6.25469 6.71863C5.91249 6.7309 5.29165 6.86053 5.10665 6.95701L5.00061 7.01305L5.15235 7.04143C5.23677 7.05683 5.69011 7.12691 6.15849 7.1951C7.1744 7.34143 8.52557 7.5665 8.64704 7.60936L8.73448 7.63661L8.66922 7.56686C8.63349 7.5255 8.48212 7.41459 8.33695 7.31665L8.06448 7.14144L8.54038 5.7925L9.01628 4.44355L10.215 3.878C10.8712 3.56673 11.5986 3.22669 11.8331 3.12249L12.2546 2.92614L12.0402 2.49465C11.9221 2.25888 11.8173 2.05658 11.81 2.04681C11.7983 2.0391 10.9856 2.41733 10.0039 2.88695Z" fill="#009054"/>
<path d="M8.03208 8.15077C7.3659 8.05233 6.56077 7.93003 6.24225 7.87517C5.92579 7.82464 5.29928 7.72582 4.85441 7.66233L4.04495 7.5421L3.8483 7.69198C3.43976 8.00434 3.12337 8.38156 2.9354 8.77174C2.85532 8.93758 2.85401 8.9515 2.91718 8.95581C2.95366 8.9543 3.33855 9.01461 3.76613 9.08638C4.51768 9.20774 5.75791 9.40086 7.8375 9.72117C8.37319 9.80232 9.08958 9.91128 9.42953 9.96652L10.0496 10.0631L10.0064 9.77823C9.9119 9.16979 9.56132 8.43147 9.3385 8.36005C9.28736 8.34201 8.69827 8.2492 8.03208 8.15077Z" fill="#009054"/>
<path d="M8.50388 10.6858C7.03482 10.4587 5.89405 10.2791 4.82605 10.1072C4.21666 10.0108 3.46078 9.89151 3.14433 9.84097L2.56803 9.75268L2.5015 10.0024C2.36769 10.4836 2.46477 10.9419 2.75493 11.2097C2.95332 11.3911 3.16786 11.4452 4.50117 11.6496C5.52441 11.8057 6.39893 11.9453 8.08686 12.2245C8.96345 12.3684 9.10484 12.3751 9.33253 12.2901C9.92083 12.0591 10.0217 11.2536 9.49875 10.9325C9.2951 10.8068 9.30789 10.8113 8.50388 10.6858Z" fill="#009054"/>
<path d="M5.86373 12.5042C5.35812 12.4193 4.57612 12.3231 4.58853 12.349C4.59568 12.3695 6.01755 12.598 6.30861 12.6288C6.62111 12.66 6.36294 12.5868 5.86373 12.5042Z" fill="#009054"/>
<path d="M7.24614 13.3333C6.68149 13.2527 5.87316 13.1293 4.63725 12.9341C3.05067 12.6835 3.08921 12.6863 2.90534 12.7796C2.71827 12.8718 2.59005 13.0314 2.56244 13.2014C2.52374 13.4537 2.68116 13.7717 2.88574 13.8438C2.97844 13.8765 4.78501 14.176 5.18833 14.2248C5.26429 14.2337 5.79566 14.3169 6.36651 14.4105C6.94169 14.5019 7.47964 14.5767 7.56538 14.5782C7.82805 14.5774 8.03711 14.4535 8.16983 14.2199C8.26495 14.0522 8.22523 13.747 8.09247 13.6139C7.93864 13.459 7.78089 13.407 7.24614 13.3333Z" fill="#009054"/>
<path d="M5.20355 14.9456C4.1912 14.7789 3.99547 14.753 4.04849 14.7861C4.12803 14.8357 5.81164 15.117 5.86786 15.0901C5.90677 15.0715 5.71235 15.0316 5.20355 14.9456Z" fill="#009054"/>
<path d="M3.89456 14.7641C3.91343 14.7815 3.94314 14.7884 3.95603 14.7822C3.97209 14.7772 3.9564 14.7609 3.92034 14.7518C3.8854 14.7394 3.87251 14.7456 3.89456 14.7641Z" fill="#009054"/>
<path d="M5.66605 15.7233C5.38589 15.682 4.65465 15.5642 4.03886 15.4656C2.81254 15.2738 2.73432 15.2713 2.53917 15.4577C2.24815 15.7324 2.27999 16.1822 2.60417 16.4044C2.73448 16.4935 3.00261 16.5485 3.97678 16.6909C4.30508 16.7385 4.88138 16.8268 5.25124 16.8889C5.62222 16.9479 5.98699 16.994 6.05994 16.9909C6.34216 16.9755 6.60744 16.7635 6.6514 16.5167C6.69912 16.2388 6.51933 15.9129 6.27413 15.8336C6.22186 15.8188 5.94828 15.769 5.66605 15.7233Z" fill="#009054"/>
<path d="M3.85453 17.3739L3.43204 17.3183L3.28769 17.7275L3.14221 18.1398L3.6217 18.309L4.10118 18.4781L4.26958 17.9804L4.44118 17.4838L4.35694 17.4577C4.31107 17.4451 4.08449 17.4047 3.85453 17.3739Z" fill="#009054"/>
</svg>
